<svg viewBox="0 0 128 128" xmlns="http://www.w3.org/2000/svg">
  <path fill="currentColor" d="M64 16c-26.5 0-48 21.5-48 48 0 12.4 4.7 23.7 12.4 32.2v.1c.1.1.2.2.3.3 1.2 1.3 2.5 2.5 3.9 3.6 2.2 1.8 4.6 3.4 7.1 4.8 4.9 2.7 10.2 4.5 15.8 5.4 1.1.2 2.2.3 3.3.4h.2c.1 0 .2 0 .3.1h.2c.1 0 .2 0 .3-.1h.2c1.1-.1 2.2-.2 3.3-.4 5.6-.9 10.9-2.7 15.8-5.4 2.5-1.4 4.9-3 7.1-4.8 1.4-1.1 2.7-2.3 3.9-3.6.1-.1.2-.2.3-.3v-.1C107.3 87.7 112 76.4 112 64c0-26.5-21.5-48-48-48zM52 64c-4.4 0-8-3.6-8-8s3.6-8 8-8 8 3.6 8 8-3.6 8-8 8zm24 0c-4.4 0-8-3.6-8-8s3.6-8 8-8 8 3.6 8 8-3.6 8-8 8zm-12 24c-6.6 0-12-5.4-12-12s5.4-12 12-12 12 5.4 12 12-5.4 12-12 12z"/>
</svg>
